<svg
  aria-labelledby="title"
  fill="none"
  height="184"
  role="img"
  viewBox="0 0 679 184"
  width="679"
  xmlns="http://www.w3.org/2000/svg"
>
  <title id="title">Focory logo</title>
  <g transform="translate(-70 -104)">
  <g fill="#2C5A4E">
    <path
      d="M11.8212891 174 L11.8212891 43.042969 L97.998047 43.042969 L97.998047 65.323242 L38.671875 65.323242 L38.671875 101.885742 L92.197266 101.885742 L92.197266 123.770508 L38.671875 123.770508 L38.671875 174 L11.8212891 174 Z"
      transform="translate(60 75)"
    />
    <path
      d="M55.151367 175.93359 C45.307617 175.93359 36.782227 173.82422 29.575195 169.60547 C22.397461 165.357422 16.860352 159.439453 12.9638672 151.851563 C9.0966797 144.234375 7.1630859 135.386719 7.1630859 125.308594 C7.1630859 115.142578 9.0966797 106.250977 12.9638672 98.633789 C16.860352 91.016602 22.397461 85.098633 29.575195 80.879883 C36.782227 76.631836 45.307617 74.507813 55.151367 74.507813 C61.010742 74.507813 66.386719 75.269531 71.279297 76.792969 C76.201172 78.287109 80.566406 80.455078 84.375 83.296875 C88.183594 86.109375 91.318359 89.537109 93.779297 93.580078 C96.240234 97.59375 97.939453 102.120117 98.876953 107.15918 L74.355469 111.773438 C73.798828 109.224609 72.963867 106.939453 71.850586 104.917969 C70.766602 102.867188 69.433594 101.124023 67.851563 99.688477 C66.269531 98.25293 64.438477 97.154297 62.358398 96.392578 C60.27832 95.630859 57.978516 95.25 55.458984 95.25 C50.742188 95.25 46.801758 96.524414 43.637695 99.073242 C40.473633 101.592773 38.071289 105.09375 36.430664 109.576172 C34.819336 114.058594 34.013672 119.273438 34.013672 125.220703 C34.013672 131.050781 34.819336 136.22168 36.430664 140.733398 C38.071289 145.245117 40.473633 148.790039 43.637695 151.368164 C46.801758 153.916992 50.742188 155.191406 55.458984 155.191406 C58.007813 155.191406 60.336914 154.795898 62.446289 154.004883 C64.555664 153.213867 66.416016 152.085938 68.027344 150.621094 C69.667969 149.126953 71.030273 147.310547 72.114258 145.171875 C73.227539 143.033203 74.047852 140.645508 74.575195 138.008789 L99.008789 142.579102 C98.100586 147.764648 96.416016 152.408203 93.955078 156.509766 C91.494141 160.582031 88.359375 164.068359 84.550781 166.96875 C80.742188 169.86914 76.362305 172.0957 71.411133 173.64844 C66.459961 175.17188 61.040039 175.93359 55.151367 175.93359 Z"
      transform="translate(300 75)"
    />
    <path
      d="M11.25 174 L11.25 75.738281 L36.782227 75.738281 L36.782227 92.833008 L37.836914 92.833008 C39.624023 86.797852 42.641602 82.227539 46.889648 79.12207 C51.137695 75.987305 56.015625 74.419922 61.523438 74.419922 C62.871094 74.419922 64.321289 74.507813 65.874023 74.683594 C67.456055 74.830078 68.847656 75.035156 70.048828 75.298828 L70.048828 98.853516 C68.876953 98.443359 67.163086 98.121094 64.907227 97.886719 C62.680664 97.623047 60.585938 97.491211 58.623047 97.491211 C54.609375 97.491211 51.005859 98.370117 47.8125 100.12793 C44.619141 101.856445 42.114258 104.258789 40.297852 107.334961 C38.481445 110.411133 37.573242 113.985352 37.573242 118.057617 L37.573242 174 L11.25 174 Z"
      transform="translate(553 75)"
    />
    <path
      d="M10.546875 208.80469 L16.5673828 188.89746 L19.819336 189.77637 C23.393555 190.68457 26.542969 190.93359 29.267578 190.52344 C31.992188 190.11328 34.189453 189 35.859375 187.18359 C37.529297 185.36719 38.540039 182.83301 38.891602 179.58105 L39.682617 174.30762 L2.7685547 75.738281 L30.761719 75.738281 L47.241211 126.758789 C49.291992 133.204102 50.932617 139.649414 52.163086 146.094727 C53.422852 152.510742 54.858398 159.219727 56.469727 166.22168 L50.361328 166.22168 C51.943359 159.219727 53.510742 152.481445 55.063477 146.006836 C56.645508 139.532227 58.491211 133.116211 60.600586 126.758789 L77.915039 75.738281 L105.556641 75.738281 L63.852539 185.60156 C61.860352 190.875 59.296875 195.44531 56.162109 199.3125 C53.056641 203.20898 49.189453 206.19727 44.560547 208.27734 C39.931641 210.38672 34.321289 211.44141 27.729492 211.44141 C24.272461 211.44141 21.005859 211.19238 17.929688 210.69434 C14.8828125 210.19629 12.421875 209.56641 10.546875 208.80469 Z"
      transform="translate(642 75)"
    />
  </g>
  <ellipse
    cx="231"
    cy="177"
    fill="#FFFDF8"
    rx="53.5"
    ry="66.5"
    stroke="#2C5A4E"
    stroke-width="11"
  />
  <ellipse cx="231" cy="178.5" fill="#2C5A4E" rx="24" ry="32.5" />
  <ellipse
    cx="484"
    cy="177"
    fill="#FFFDF8"
    rx="53.5"
    ry="66.5"
    stroke="#2C5A4E"
    stroke-width="11"
  />
  <ellipse cx="484" cy="178.5" fill="#2C5A4E" rx="24" ry="32.5" />
  </g>
</svg>
